<?xml version="1.0" encoding="UTF-8" standalone="no"?>
<!DOCTYPE svg PUBLIC "-//W3C//DTD SVG 1.1//EN" "http://www.w3.org/Graphics/SVG/1.1/DTD/svg11.dtd">
<svg xmlns="http://www.w3.org/2000/svg" version="1.1" viewBox="0.00 0.00 640.00 640.00">
<path fill="#a8d18d" d="
  M 406.37 137.35
  L 146.25 279.05
  A 0.84 0.81 70.5 0 1 145.06 278.46
  L 128.27 192.29
  Q 128.08 191.34 129.01 191.04
  Q 131.19 190.35 134.01 189.81
  Q 270.15 163.36 406.15 136.74
  A 0.33 0.33 0.0 0 1 406.37 137.35
  Z"
/>
<path fill="#a8d18d" d="
  M 424.67 157.11
  A 0.90 0.90 0.0 0 1 425.98 156.36
  L 527.86 207.87
  A 1.96 1.96 0.0 0 1 528.73 210.50
  L 408.64 448.30
  Q 407.57 450.42 407.71 448.00
  L 424.67 157.11
  Z"
/>
<circle fill="#a8d18d" cx="321.92" cy="293.81" r="63.68"/>
<path fill="#a8d18d" d="
  M 387.19 479.01
  A 0.57 0.48 -42.5 0 1 387.08 479.86
  Q 385.08 481.24 382.71 482.68
  Q 336.96 510.31 291.26 538.02
  Q 290.38 538.56 288.11 539.40
  Q 287.62 539.57 287.29 539.18
  Q 285.76 537.42 284.57 535.44
  Q 212.94 416.57 141.39 297.89
  A 0.15 0.14 2.6 0 1 141.60 297.70
  L 387.19 479.01
  Z"
/>
</svg>
