<?xml version="1.0" encoding="UTF-8" standalone="no"?>
<!DOCTYPE svg PUBLIC "-//W3C//DTD SVG 1.1//EN" "http://www.w3.org/Graphics/SVG/1.1/DTD/svg11.dtd">
<svg xmlns="http://www.w3.org/2000/svg" version="1.1" viewBox="0.00 0.00 1215.00 1221.00">
<path fill="#ffd966" d="
  M 846.69 1.89
  L 53.30 434.36
  Q 52.93 434.56 52.85 434.15
  L 0.76 165.75
  A 0.39 0.39 0.0 0 1 1.06 165.30
  L 846.51 1.35
  Q 848.31 1.00 846.69 1.89
  Z"
/>
<path fill="#ffd966" d="
  M 896.82 59.27
  Q 896.88 58.32 897.73 58.75
  L 1213.86 218.39
  Q 1214.55 218.74 1214.20 219.43
  L 845.20 949.97
  A 0.17 0.17 0.0 0 1 844.87 949.88
  L 896.82 59.27
  Z"
/>
<path fill="#ffd966" d="
  M 687.80 640.36
  C 599.26 694.21 485.69 669.97 426.53 584.32
  C 365.94 496.60 390.13 376.27 478.18 316.26
  C 570.80 253.13 697.28 282.98 753.98 379.28
  C 807.04 469.41 776.19 586.60 687.80 640.36
  Z"
/>
<path fill="#ffd966" d="
  M 786.85 1036.98
  L 482.82 1220.46
  A 0.31 0.31 0.0 0 1 482.39 1220.35
  L 38.91 485.38
  A 0.31 0.31 0.0 0 1 39.36 484.97
  L 786.88 1036.46
  A 0.31 0.31 0.0 0 1 786.85 1036.98
  Z"
/>
</svg>
