<?xml version="1.0" encoding="UTF-8" standalone="no"?>
<!DOCTYPE svg PUBLIC "-//W3C//DTD SVG 1.1//EN" "http://www.w3.org/Graphics/SVG/1.1/DTD/svg11.dtd">
<svg xmlns="http://www.w3.org/2000/svg" version="1.1" viewBox="0.00 0.00 1215.00 1221.00">
<path fill="#ffffff" d="
  M 847.16 1.64
  L 53.24 434.40
  A 0.25 0.24 -19.3 0 1 52.88 434.23
  L 0.80 165.97
  A 0.60 0.60 0.0 0 1 1.27 165.26
  L 847.02 1.25
  A 0.21 0.21 0.0 0 1 847.16 1.64
  Z"
/>
<path fill="#ffffff" d="
  M 897.30 58.54
  L 1214.28 218.61
  A 0.31 0.31 0.0 0 1 1214.42 219.03
  L 845.49 949.41
  A 0.31 0.31 0.0 0 1 844.91 949.25
  L 896.85 58.80
  A 0.31 0.31 0.0 0 1 897.30 58.54
  Z"
/>
<path fill="#ffffff" d="
  M 451.43 613.82
  C 404.81 568.40 384.43 503.45 396.57 439.56
  C 410.32 367.23 465.94 308.35 536.73 289.46
  C 609.30 270.09 685.81 294.81 734.29 351.68
  C 782.49 408.21 793.53 487.94 762.80 555.70
  C 746.18 592.34 716.56 624.73 681.31 644.19
  C 605.97 685.79 513.48 674.27 451.43 613.82
  Z"
/>
<path fill="#ffffff" d="
  M 38.94 485.31
  Q 38.63 485.31 38.46 484.97
  A 0.28 0.28 0.0 0 1 38.88 484.62
  L 786.83 1036.44
  Q 787.26 1036.75 786.80 1037.03
  L 482.92 1220.41
  A 0.40 0.39 58.7 0 1 482.37 1220.27
  Q 260.56 852.79 38.94 485.31
  Z"
/>
</svg>
